<svg id="Layer_1" data-name="Layer 1" xmlns="http://www.w3.org/2000/svg" viewBox="0 0 820 820"><defs><style>.cls-1{fill:none;}.cls-2{fill:#6f655f;}</style></defs><path class="cls-1" d="M202.8,78.76V783.6H616.07V78.76ZM540,390.36c-3.67,26.29-15.2,49.42-27.38,72.46Q442,596.61,371.77,730.55a15.44,15.44,0,0,1-5,6.07c1.18-4.5,2.26-9,3.56-13.51,13.19-44.72,19.72-90.21,16.54-137-7.19-105.92-58.06-185.43-145.91-242.73-1.6-1-2.78-2.77-4.16-4.16,2-1.48,4.07-4.41,5.84-4.2,7,.85,14.68,1.23,20.82,4.35,23.78,12.1,42.35,31,60,50.41,18.64,20.47,36.14,42,54.13,63,1.34,1.55,2.73,3.07,4.09,4.6l2.66-.16c7.14-63.29,14.28-126.56,21.67-192-3.34,2.45-5.33,3.63-7,5.16-7.51,6.75-14.78,13.77-22.5,20.28-1.81,1.53-5,1.44-7.58,2.1.13-2.4-.26-5,.46-7.18,6.91-20.79,19.62-38.28,32.56-55.48,9.59-12.75,20.26-24.69,30-37.36A25.82,25.82,0,0,0,437,180.29a100.51,100.51,0,0,1,23.43-56.87c5.62-6.75,12.58-12.13,22.1-12a7.65,7.65,0,0,1,5.28,2.13c.56.71-.57,3.76-1.75,4.85-14.58,13.49-17.93,32.37-24,49.9-1.45,4.16-1,7.77,5.11,8.11,28.42,1.55,37.15,21.47,35.14,45.62-2.61,31.3-15.94,58.91-29.87,86.27-3.88,7.62-3.08,8.36,5.59,9.66,22.59,3.4,43.69,10.17,55.47,32.11C540.26,362.57,542,376.13,540,390.36Z"/><path class="cls-2" d="M533.53,350.06c-11.78-21.94-32.88-28.71-55.47-32.11-8.67-1.3-9.47-2-5.59-9.66,13.93-27.36,27.26-55,29.87-86.27,2-24.15-6.72-44.07-35.14-45.62-6.15-.34-6.56-4-5.11-8.11,6.08-17.53,9.43-36.41,24-49.9,1.18-1.09,2.31-4.14,1.75-4.85a7.65,7.65,0,0,0-5.28-2.13c-9.52-.12-16.48,5.26-22.1,12A100.51,100.51,0,0,0,437,180.29a25.82,25.82,0,0,1-5.15,12.54c-9.7,12.67-20.37,24.61-30,37.36-12.94,17.2-25.65,34.69-32.56,55.48-.72,2.2-.33,4.78-.46,7.18,2.58-.66,5.77-.57,7.58-2.1,7.72-6.51,15-13.53,22.5-20.28,1.69-1.53,3.68-2.71,7-5.16-7.39,65.41-14.53,128.68-21.67,192l-2.66.16c-1.36-1.53-2.75-3.05-4.09-4.6-18-21-35.49-42.54-54.13-63-17.68-19.43-36.25-38.31-60-50.41-6.14-3.12-13.77-3.5-20.82-4.35-1.77-.21-3.88,2.72-5.84,4.2,1.38,1.39,2.56,3.12,4.16,4.16,87.85,57.3,138.72,136.81,145.91,242.73,3.18,46.74-3.35,92.23-16.54,137-1.3,4.46-2.38,9-3.56,13.51a15.44,15.44,0,0,0,5-6.07q70.39-133.86,140.81-267.73c12.18-23,23.71-46.17,27.38-72.46C542,376.13,540.26,362.57,533.53,350.06ZM445.18,230.19c2.15-6.09,5.43-11.85,13.29-11.39C465,219.19,470.69,224,471,230c.39,6.26.69,12.8-.68,18.84a144.76,144.76,0,0,1-29.53,59.7c-1.54,1.89-2.24,4.5-3.34,6.77-.95-.79-1.9-1.59-2.85-2.36a7.66,7.66,0,0,1-.74-2.47C435,283.31,436,256.14,445.18,230.19Zm62.38,163.13C481.5,451.27,457.15,510,426,565.53a117,117,0,0,1-8.48,12.93c-1.43,1.9-3.74,3.12-5.66,4.63-1-2.45-2.8-4.84-3-7.37-.76-12.9-1.15-25.82-1.61-38.76-.12-3.51,0-7,0-10.57l-1.94-.08c1.85-29.31,3.45-58.62,5.67-87.89,1.71-22.55,6.68-44.41,17.17-64.69,9.68-18.67,26.1-26.67,46.2-28.31C497.44,343.53,517.46,371.32,507.56,393.32Z"/><path class="cls-1" d="M507.56,393.32C481.5,451.27,457.15,510,426,565.53a117,117,0,0,1-8.48,12.93c-1.43,1.9-3.74,3.12-5.66,4.63-1-2.45-2.8-4.84-3-7.37-.76-12.9-1.15-25.82-1.61-38.76-.12-3.51,0-7,0-10.57l-1.94-.08c1.85-29.31,3.45-58.62,5.67-87.89,1.71-22.55,6.68-44.41,17.17-64.69,9.68-18.67,26.1-26.67,46.2-28.31C497.44,343.53,517.46,371.32,507.56,393.32Z"/><path class="cls-1" d="M470.36,248.8a144.76,144.76,0,0,1-29.53,59.7c-1.54,1.89-2.24,4.5-3.34,6.77-.95-.79-1.9-1.59-2.85-2.36a7.66,7.66,0,0,1-.74-2.47c1.07-27.13,2.06-54.3,11.28-80.25,2.15-6.09,5.43-11.85,13.29-11.39C465,219.19,470.69,224,471,230,471.43,236.22,471.73,242.76,470.36,248.8Z"/></svg>
