<svg id="Layer_1" data-name="Layer 1" xmlns="http://www.w3.org/2000/svg" viewBox="0 0 128 128"><defs><style>.cls-1{fill:#6e645e;}</style></defs><path class="cls-1" d="M64.05,114A50.13,50.13,0,1,1,114.18,63.9,50.18,50.18,0,0,1,64.05,114Zm0-96.26A46.13,46.13,0,1,0,110.18,63.9,46.18,46.18,0,0,0,64.05,17.77Z"/><path class="cls-1" d="M70,91.46H55.4V65.9H50.12V53.09H55.4V49.8c0-8.94,4.53-13.47,13.46-13.47h9.06V49.15H71.51a4.09,4.09,0,0,0-1.42.16,6,6,0,0,0-.1,1.36v2.42H78.2L76.84,65.9H70V91.46Zm-10.58-4H66V61.9h7.26l.51-4.81H66l0-6.42c0-2.87.66-5.52,5.51-5.52h2.42V40.33H68.86c-6.71,0-9.45,2.75-9.45,9.47v7.29H54.12V61.9h5.29Z"/></svg>
