<svg id="Layer_1" data-name="Layer 1" xmlns="http://www.w3.org/2000/svg" viewBox="0 0 820 820"><defs><style>.cls-1{fill:#fbfbfb;}</style></defs><path class="cls-1" d="M374.7,731.74a3,3,0,0,1-2.94-3.75,918.08,918.08,0,0,0,17.86-102.43c8.3-72.62,4-126.76-12.45-156.55l-2.43-4.41c-39-70.78-62.59-113.5-130.9-154.49a2.89,2.89,0,0,1-.45-.33c-7.85-6.92-20.58-19.51-17.53-26.08,2-4.39,8.34-3.46,10.41-3.16,9.51,1.4,93.08,16.58,155.92,122.38,4.37-25.49,17.46-104.66,20.54-156.15-7,5.31-18.61,12.91-27.47,12.91a10.4,10.4,0,0,1-8-3.2c-2.39-2.58-1.58-6.82-.76-9.79,3.77-13.72,20.62-41.18,35.15-62.31,4.61-6.72,26.68-38.4,36.69-45a146.69,146.69,0,0,1,7.23-39.3c9.51-27.83,26.94-43.48,50.42-45.24a3,3,0,0,1,2.64,4.84c-.26.34-24.88,33.44-22.71,65.52,6.38,0,21.41,1,32,11,7.71,7.25,11.4,17.65,11,30.89-1.3,41-15.82,73.26-27.48,99.2l-.5,1.1a167.17,167.17,0,0,1,24.47,9.76c20.1,9.92,34,22,41.28,35.81,6.9,13.1,7.58,27.5,2,42.79-23.16,63.85-124.64,282.5-191.58,374.74A3,3,0,0,1,374.7,731.74ZM247.19,305.06c69.52,41.78,93.37,85,132.85,156.62l2.43,4.4c9.57,17.34,15.24,42.05,16.86,73.44,1.28,24.91,0,54.11-3.7,86.8-4.2,36.74-10.66,69.77-14.59,88.07C447.45,616.64,541,414.57,563,353.69c4.94-13.62,4.36-26.38-1.71-37.91-16-30.43-64.84-43.39-65.34-43.52a3,3,0,0,1-2-4.17l1.92-4.28c11.45-25.46,25.7-57.14,27-96.91.36-11.42-2.68-20.26-9-26.27-11.46-10.81-30.16-9.27-30.35-9.25a3,3,0,0,1-3.28-2.66c-2.18-18.57,4.38-37.36,10.27-49.85a151.49,151.49,0,0,1,9.42-17c-17.72,3.75-30.65,17.21-38.51,40.1a142.09,142.09,0,0,0-7,39.34,3,3,0,0,1-2.17,2.87c-7,2.23-50.87,61.75-66.1,94.56-4.83,10.4-4.4,13.3-4.28,13.76,4.8,4.77,22.07-5.83,32.32-14.58a3,3,0,0,1,5,2.44c-2.69,61.16-22.21,170.76-22.41,171.86a3,3,0,0,1-5.62.95c-24.39-43.34-55.21-77.05-91.59-100.19-33-21-59.21-25.68-64.12-26.41a11.15,11.15,0,0,0-4-.09C231.78,289.3,238.88,297.7,247.19,305.06Zm134.65-52.54Z"/><path class="cls-1" d="M432.27,545.75a3,3,0,0,1-1-.16,3,3,0,0,1-2-2.64c0-.47-3.5-47.33-2.11-97.19,1.88-67.69,11.49-108.5,28.54-121.29,25.47-19.1,48-17.59,60.64-9.82A28.57,28.57,0,0,1,529.85,345c-5.07,28.29-77.23,179.53-95.32,199.79A3,3,0,0,1,432.27,545.75Zm63.48-230.48c-10.23,0-22.78,3.8-36.43,14.05C444,340.77,435,381.08,433.2,445.88c-1,37.23.64,72.78,1.56,88.37,22.83-34.72,84.68-165.58,89.13-190.37a22.7,22.7,0,0,0-10.74-24.07A33,33,0,0,0,495.75,315.27Z"/><path class="cls-1" d="M458.9,260.55a3,3,0,0,1-.93-.15,3,3,0,0,1-2.09-2.85c0-.18-.16-18.41,1.59-37.1,3.3-35.31,10.2-41.77,15.11-43.55,5.67-2.06,10.8-1.08,14.47,2.76,6.45,6.75,7.31,22.07,2,34.88-7.07,17-26.86,43.66-27.7,44.79A3,3,0,0,1,458.9,260.55Zm19.26-78.66a10.25,10.25,0,0,0-3.51.7c-7.62,2.77-12.17,33.95-12.69,65.46,6.48-9.25,16.94-24.94,21.48-35.84,4.33-10.4,4-23.4-.77-28.37A6,6,0,0,0,478.16,181.89Z"/></svg>
