<svg id="Layer_1" data-name="Layer 1" xmlns="http://www.w3.org/2000/svg" viewBox="0 0 128 128"><defs><style>.cls-1{fill:#6e645e;}</style></defs><path class="cls-1" d="M64.05,114.14A50.13,50.13,0,1,1,114.18,64,50.19,50.19,0,0,1,64.05,114.14Zm0-96.26A46.13,46.13,0,1,0,110.18,64,46.18,46.18,0,0,0,64.05,17.88Z"/><path class="cls-1" d="M64.05,77.94A12.33,12.33,0,1,1,76.38,65.62,12.33,12.33,0,0,1,64.05,77.94Zm0-20.65a8.33,8.33,0,1,0,8.33,8.33A8.34,8.34,0,0,0,64.05,57.29Z"/><path class="cls-1" d="M79.89,91.07H48.21a12,12,0,0,1-12-12V48.94a12,12,0,0,1,12-12H79.89a12,12,0,0,1,12,12V79.07A12,12,0,0,1,79.89,91.07ZM48.21,40.94a8,8,0,0,0-8,8V79.07a8,8,0,0,0,8,8H79.89a8,8,0,0,0,8-8V48.94a8,8,0,0,0-8-8Z"/><path class="cls-1" d="M55.72,60.75H38.87a2,2,0,0,1,0-4H55.72a2,2,0,0,1,0,4Z"/><path class="cls-1" d="M89.42,60.75h-17a2,2,0,0,1,0-4h17a2,2,0,1,1,0,4Z"/><path class="cls-1" d="M75.2,46.93a2,2,0,0,1,2-2h3.4a2,2,0,0,1,2,2v3.4a2,2,0,0,1-2,2H77.2a2,2,0,0,1-2-2Z"/></svg>
