<svg id="Layer_1" data-name="Layer 1" xmlns="http://www.w3.org/2000/svg" viewBox="0 0 820 820"><defs><style>.cls-1{fill:#010101;}.cls-2{fill:none;}.cls-3{fill:#6f655f;}</style></defs><path class="cls-1" d="M422,700.23c-166.69,0-301.82-135.12-301.83-301.81S255.29,96.59,422,96.59,723.81,231.71,723.81,398.4A301.82,301.82,0,0,1,422,700.23Zm0-598.89c-164.07,0-297.06,133-297,297.1s133,297.06,297.1,297,297.06-133,297-297.1a297.07,297.07,0,0,0-297.1-297Z"/><path class="cls-1" d="M219.73,290.82l-.75-2.55c-.16-.91.25-1.19.91-1.32a5.63,5.63,0,0,0,4-2.42c1.25-2.1,1-5.31-2.83-7.57L200.7,264.84a.94.94,0,0,1-.33-1.29h0l1.69-2.84a1,1,0,0,1,1.3-.33l20.27,12.1c6,3.57,7.14,9.4,4.15,14.42a9.66,9.66,0,0,1-7,4.66A1,1,0,0,1,219.73,290.82Z"/><path class="cls-1" d="M218.06,239.35A1,1,0,0,1,218,238l12.9-15.28a1,1,0,0,1,1.34-.12l2.14,1.81a1,1,0,0,1,.11,1.34L224.3,237.82l7.79,6.58,8.62-10.2a1,1,0,0,1,1.33-.11l2.14,1.8a1,1,0,0,1,.12,1.34l-8.62,10.2,8.22,6.94L254,242.31a1,1,0,0,1,1.34-.12l2.1,1.78a1,1,0,0,1,.12,1.33l-12.91,15.29a1,1,0,0,1-1.34.11Z"/><path class="cls-1" d="M248.27,206.3a.86.86,0,0,1-.32-1.17.89.89,0,0,1,.32-.32l2.66-2.05a1,1,0,0,1,1.14,0l18.77,14.51.16-.12-7.91-23.68a.87.87,0,0,1,.34-.95l.71-.55a.89.89,0,0,1,1-.08L286,205.59l.16-.13-9.26-21.82a1,1,0,0,1,.29-1.1l2.65-2a.87.87,0,0,1,1.24,0,.82.82,0,0,1,.21.36l13,32.4a1,1,0,0,1-.28,1.1l-.64.49a1,1,0,0,1-1,.08l-22.11-14.34-.2.15,8.28,25a1,1,0,0,1-.34,1l-.63.48a1,1,0,0,1-1.14,0Z"/><path class="cls-1" d="M303.08,168.71a1,1,0,0,1,.45-1.27l18.1-8.52a1,1,0,0,1,1.26.46l1.2,2.53a1,1,0,0,1-.46,1.27l-14.3,6.73,4.35,9.23,12.08-5.69a1,1,0,0,1,1.26.45l1.2,2.54a1,1,0,0,1-.46,1.26l-12.08,5.69,4.58,9.73,14.3-6.73a.93.93,0,0,1,1.25.44h0l1.17,2.49a.93.93,0,0,1-.42,1.25h0l-18.1,8.52a.93.93,0,0,1-1.25-.44h0Z"/><path class="cls-1" d="M346.53,151.08a1,1,0,0,1,.67-1.17l3.18-.86a1,1,0,0,1,1.17.66l7.72,28.37,13.08-3.56a1,1,0,0,1,1.17.67l.72,2.65a1,1,0,0,1-.67,1.17l-17.18,4.68a1,1,0,0,1-1.16-.67Z"/><path class="cls-1" d="M388.11,141.94a1,1,0,0,1,.87-1l13.55-1.15a10.79,10.79,0,0,1,11.76,9.73h0c.39,4.59-2.32,8.63-6.51,10.74l7.9,12.08a.94.94,0,0,1-.18,1.32.92.92,0,0,1-.55.19l-3.88.33a.92.92,0,0,1-.84-.38l-7.74-12.64-7.53.64,1,12.68a1,1,0,0,1-.86,1l-3.24.28a1,1,0,0,1-1-.87Zm15.46,14.8a6.22,6.22,0,0,0,5.55-6.7,6.14,6.14,0,0,0-6.58-5.41l-8.87.75,1,12.11Z"/><path class="cls-1" d="M444.16,158.2l-9.93-17.8a.92.92,0,0,1,.37-1.26.87.87,0,0,1,.57-.11l3.68.38a1,1,0,0,1,.75.53l7.7,13.61,10.31-11.76a1,1,0,0,1,.84-.37l3.73.38a.93.93,0,0,1,.87,1,.9.9,0,0,1-.22.54l-13.49,15.35-1.62,15.87a1,1,0,0,1-1.05.85l-3.28-.34a.94.94,0,0,1-.85-1Z"/><path class="cls-1" d="M510.44,155.32a1,1,0,0,1,1.24-.51L522,159.07c5.59,2.31,8.09,7.66,6.09,12.52-1.46,3.56-5.15,5-7.83,5.37,2,2,4.42,5.66,2.67,9.91-2.13,5.18-7.93,7.17-13.75,4.77l-10.87-4.47a1,1,0,0,1-.51-1.24Zm.48,32.05a5.32,5.32,0,0,0,7-2.81,1.54,1.54,0,0,0,.08-.19c1.16-2.82-.68-6-3.69-7.2l-6.3-2.59-4.07,9.9ZM516,173a5,5,0,0,0,6.61-2.51,4.14,4.14,0,0,0,.19-.49,4.84,4.84,0,0,0-2.2-6.48,4,4,0,0,0-.6-.25l-6.24-2.57-4,9.71Z"/><path class="cls-1" d="M550.76,194.42,550,174a.93.93,0,0,1,.91-.95,1,1,0,0,1,.55.17l3.11,2a1,1,0,0,1,.42.81l.67,15.62,14.52-5.77a1.06,1.06,0,0,1,.92,0l3.15,2a.92.92,0,0,1,.33,1.26.9.9,0,0,1-.45.39l-19,7.53-8.67,13.39a1,1,0,0,1-1.32.28l-2.77-1.8a1,1,0,0,1-.28-1.31Z"/><path class="cls-1" d="M611.08,222a1,1,0,0,1,1.34.11l7.3,8.49c3.94,4.59,3.74,10.5-.24,13.92-2.92,2.51-6.87,2.14-9.42,1.23.89,2.73,1.38,7.06-2.11,10.06-4.25,3.64-10.32,2.79-14.42-2l-7.66-8.91a1,1,0,0,1,.1-1.34ZM597,250.78a5.34,5.34,0,0,0,7.52.66l.14-.12c2.31-2,2.09-5.62,0-8.08L600.2,238l-8.2,7Zm11-10.51a5,5,0,0,0,7,.77,4.4,4.4,0,0,0,.39-.35,4.82,4.82,0,0,0,1-6.76,5.15,5.15,0,0,0-.43-.5l-4.4-5.12-8,6.84Z"/><path class="cls-1" d="M641,260.49a1,1,0,0,1,1.29.36l1.64,2.92a1,1,0,0,1-.37,1.3l-18,10.09c-4.36,2.44-6.2,7.14-3.71,11.59s7.47,5.44,11.79,3l18.1-10.14A.94.94,0,0,1,653,280l1.64,2.93a1,1,0,0,1-.36,1.29L636,294.48a13.6,13.6,0,0,1-13.29-23.73Z"/><path class="cls-1" d="M664.85,309.45a1,1,0,0,1,1.2.61l6.15,19a1,1,0,0,1-.61,1.19l-2.67.86a1,1,0,0,1-1.19-.6h0l-4.86-15-9.71,3.14,4.11,12.7a1,1,0,0,1-.61,1.19l-2.67.87a1,1,0,0,1-1.2-.62l-4.1-12.7-10.23,3.31,4.86,15a1,1,0,0,1-.61,1.2l-2.62.84a.94.94,0,0,1-1.19-.59v0l-6.15-19a1,1,0,0,1,.61-1.19Z"/><path class="cls-1" d="M677.05,355.18a1,1,0,0,1,1.06.83l1.64,13.5a10.79,10.79,0,0,1-9.27,12.11h0c-4.56.56-8.71-2-11-6.11l-11.78,8.34a1,1,0,0,1-1.39-.28,1.09,1.09,0,0,1-.15-.39l-.47-3.87a.9.9,0,0,1,.35-.85l12.35-8.21-.92-7.49-12.66,1.54a1,1,0,0,1-1-.83l-.4-3.22a1,1,0,0,1,.83-1.06Zm-14.22,16a6.2,6.2,0,0,0,6.89,5.3,6.12,6.12,0,0,0,5.17-6.77l-1.08-8.84-12.06,1.47Z"/><path class="cls-1" d="M680.65,406.63a1,1,0,0,1,.87,1l-.29,3.29a.93.93,0,0,1-1,.86h0l-13.9-1.2-1.58,18.24,13.9,1.2a1,1,0,0,1,.87,1l-.29,3.28a1,1,0,0,1-1,.87l-33-2.85a1,1,0,0,1-.86-1l.28-3.29a1,1,0,0,1,1-.86l14.4,1.24,1.57-18.23L647.22,409a1,1,0,0,1-.86-1l.28-3.29a1,1,0,0,1,1-.87Z"/><path class="cls-1" d="M669.3,478.33a18,18,0,1,1-11.66-22.63,18,18,0,0,1,11.66,22.63Zm-29.49-9.53a13,13,0,1,0,16.4-8.31l-.1,0A13,13,0,0,0,639.81,468.8Z"/><path class="cls-1" d="M651.35,517.77a1,1,0,0,1,.37,1.3L650.11,522a1,1,0,0,1-1.3.36L623.15,508l-6.61,11.82a1,1,0,0,1-1.3.37l-2.4-1.34a1,1,0,0,1-.36-1.3L621.17,502a1,1,0,0,1,1.29-.37Z"/><path class="cls-1" d="M624.4,553l5-6.42a1,1,0,0,1,1.33-.17l2.21,1.73a1,1,0,0,1,.16,1.33L619.89,566.4a1,1,0,0,1-1.33.16l-2.21-1.72a1,1,0,0,1-.17-1.33l5-6.43L598.06,539a1,1,0,0,1-.16-1.34l2-2.6a1,1,0,0,1,1.34-.16Z"/><path class="cls-2" d="M293.05,219.82V619.61H527.46V219.82ZM484.29,396.56c-2.08,14.91-8.62,28-15.53,41.1q-40,75.88-79.87,151.86A8.8,8.8,0,0,1,386,593c.67-2.55,1.28-5.13,2-7.66,7.48-25.37,11.18-51.17,9.38-77.68C393.3,447.58,364.45,402.48,314.62,370a15.49,15.49,0,0,1-2.36-2.36c1.11-.84,2.31-2.5,3.31-2.38,4,.48,8.33.7,11.81,2.47,13.49,6.86,24,17.57,34.05,28.59,10.57,11.61,20.5,23.8,30.7,35.74.76.88,1.55,1.74,2.32,2.61l1.51-.09c4.05-35.9,8.1-71.79,12.29-108.89-1.89,1.39-3,2.06-4,2.93-4.26,3.83-8.38,7.81-12.76,11.5-1,.87-2.84.82-4.3,1.19a15.88,15.88,0,0,1,.26-4.07c3.92-11.79,11.13-21.71,18.47-31.47,5.44-7.23,11.49-14,17-21.19a14.61,14.61,0,0,0,2.92-7.11,57,57,0,0,1,13.29-32.26c3.19-3.83,7.14-6.88,12.54-6.81a4.3,4.3,0,0,1,3,1.21c.32.4-.32,2.13-1,2.75-8.27,7.65-10.17,18.36-13.62,28.3-.82,2.36-.59,4.41,2.9,4.6,16.12.88,21.07,12.18,19.93,25.88-1.48,17.75-9,33.41-16.94,48.93-2.2,4.32-1.75,4.74,3.17,5.48,12.81,1.93,24.78,5.77,31.46,18.21C484.46,380.8,485.42,388.49,484.29,396.56Z"/><path class="cls-3" d="M480.64,373.7C474,361.26,462,357.42,449.18,355.49c-4.92-.74-5.37-1.16-3.17-5.48,7.9-15.52,15.46-31.18,16.94-48.93,1.14-13.7-3.81-25-19.93-25.88-3.49-.19-3.72-2.24-2.9-4.6,3.45-9.94,5.35-20.65,13.62-28.3.67-.62,1.31-2.35,1-2.75a4.3,4.3,0,0,0-3-1.21c-5.4-.07-9.35,3-12.54,6.81a57,57,0,0,0-13.29,32.26,14.61,14.61,0,0,1-2.92,7.11c-5.5,7.19-11.55,14-17,21.19-7.34,9.76-14.55,19.68-18.47,31.47a15.88,15.88,0,0,0-.26,4.07c1.46-.37,3.27-.32,4.3-1.19,4.38-3.69,8.5-7.67,12.76-11.5,1-.87,2.09-1.54,4-2.93-4.19,37.1-8.24,73-12.29,108.89l-1.51.09c-.77-.87-1.56-1.73-2.32-2.61-10.2-11.94-20.13-24.13-30.7-35.74-10-11-20.56-21.73-34.05-28.59-3.48-1.77-7.81-2-11.81-2.47-1-.12-2.2,1.54-3.31,2.38a15.49,15.49,0,0,0,2.36,2.36c49.83,32.5,78.68,77.6,82.76,137.68,1.8,26.51-1.9,52.31-9.38,77.68-.74,2.53-1.35,5.11-2,7.66a8.82,8.82,0,0,0,2.85-3.44q39.93-75.93,79.87-151.86c6.91-13.07,13.45-26.19,15.53-41.1C485.42,388.49,484.46,380.8,480.64,373.7Zm-50.11-68c1.22-3.45,3.08-6.72,7.54-6.46,3.72.22,6.93,2.92,7.13,6.33a38.31,38.31,0,0,1-.39,10.69,82.11,82.11,0,0,1-16.75,33.86,18.77,18.77,0,0,0-1.89,3.84l-1.62-1.34a4.28,4.28,0,0,1-.42-1.4c.61-15.38,1.17-30.79,6.4-45.51Zm35.38,92.53c-14.78,32.87-28.59,66.19-46.26,97.68a66.07,66.07,0,0,1-4.81,7.33,16.55,16.55,0,0,1-3.21,2.63c-.58-1.39-1.59-2.75-1.68-4.18-.43-7.32-.65-14.65-.91-22-.07-2,0-4,0-6l-1.1-.05c1.05-16.62,2-33.25,3.22-49.85,1-12.79,3.79-25.19,9.74-36.69,5.49-10.59,14.8-15.13,26.2-16.06,13.07-1,24.43,14.72,18.81,27.2Z"/><path class="cls-2" d="M465.91,398.24c-14.78,32.87-28.59,66.19-46.26,97.68a66.07,66.07,0,0,1-4.81,7.33,16.55,16.55,0,0,1-3.21,2.63c-.58-1.39-1.59-2.75-1.68-4.18-.43-7.32-.65-14.65-.91-22-.07-2,0-4,0-6l-1.1-.05c1.05-16.62,2-33.25,3.22-49.85,1-12.79,3.79-25.19,9.74-36.69,5.49-10.59,14.8-15.13,26.2-16.06C460.17,370,471.53,385.76,465.91,398.24Z"/><path class="cls-2" d="M444.81,316.27a82.11,82.11,0,0,1-16.75,33.86,18.77,18.77,0,0,0-1.89,3.84l-1.62-1.34a4.28,4.28,0,0,1-.42-1.4c.61-15.39,1.17-30.8,6.4-45.52,1.22-3.45,3.08-6.72,7.54-6.46,3.72.22,6.93,2.92,7.13,6.33A38.31,38.31,0,0,1,444.81,316.27Z"/></svg>
